<?xml version="1.0" encoding="UTF-8"?>
<svg version="1.1" xmlns="http://www.w3.org/2000/svg" width="1747" height="347">
<path d="M0 0 C14.85 0 29.7 0 45 0 C46.92614103 5.13637607 48.60020335 9.85228336 49.98608398 15.09472656 C50.25043495 16.08774025 50.25043495 16.08774025 50.52012634 17.10081482 C51.09922859 19.2797689 51.67261084 21.4601859 52.24609375 23.640625 C52.66106326 25.20540809 53.07644253 26.77008257 53.49220276 28.33465576 C54.59088864 32.47277392 55.68496585 36.61209547 56.777771 40.75177002 C64.38005527 69.53973355 72.16547711 98.27341606 80 127 C80.33 85.09 80.66 43.18 81 0 C91.56 0 102.12 0 113 0 C113 74.58 113 149.16 113 226 C100.79 226 88.58 226 76 226 C73.96639473 220.57705262 72.16906169 215.35824533 70.69433594 209.79467773 C70.48390656 209.01378784 70.27347717 208.23289795 70.05667114 207.42834473 C69.36221916 204.84773563 68.67333606 202.26567369 67.984375 199.68359375 C67.48688618 197.83128455 66.98901351 195.97907841 66.49078369 194.12696838 C65.17138755 189.21873615 63.85653504 184.30929871 62.54284668 179.39953613 C53.13120425 144.2381037 43.57736407 109.11700159 34 74 C33.67 124.16 33.34 174.32 33 226 C22.11 226 11.22 226 0 226 C0 151.42 0 76.84 0 0 Z " fill="#0032FF" transform="translate(1308,76)"/>
<path d="M0 0 C0 29.04 0 58.08 0 88 C-8.91 88.99 -8.91 88.99 -18 90 C-21.2782748 90.77280652 -24.14346969 91.4886982 -27.25 92.625 C-27.98686035 92.88514893 -28.7237207 93.14529785 -29.48291016 93.41333008 C-42.31015292 98.14141794 -52.44059093 105.32627811 -62 115 C-62.66644531 115.65613281 -63.33289063 116.31226562 -64.01953125 116.98828125 C-78.65854062 132.42037465 -83.72509192 153.5258273 -86 174 C-115.04 174 -144.08 174 -174 174 C-174 135.6089948 -162.22690299 97.18510725 -138 67 C-137.56333008 66.4519873 -137.12666016 65.90397461 -136.67675781 65.33935547 C-107.9473599 29.60858881 -68.44632462 7.54057124 -23.1875 0.6875 C-15.49006975 -0.04877594 -7.73256327 0 0 0 Z " fill="#0032FF" transform="translate(175,0)"/>
<path d="M0 0 C17.49 0 34.98 0 53 0 C56.51282935 21.82320665 60.02545712 43.64644572 63.53774261 65.46973991 C65.16956845 75.60891567 66.80147783 85.74807797 68.43359375 95.88720703 C71.81647191 116.90276555 75.19849831 137.91846049 78.57749939 158.93464279 C78.85684151 160.67204548 79.13618415 162.40944807 79.41552734 164.14685059 C79.55053304 164.9865383 79.68553873 165.82622601 79.82463551 166.6913588 C80.68669712 172.05267613 81.54941371 177.41388768 82.41259766 182.77502441 C83.4063084 188.94685655 84.39857601 195.11891921 85.38948059 201.29120255 C85.729747 203.40917683 86.07054342 205.52706605 86.41191101 207.64486313 C86.86263144 210.44156207 87.31148091 213.23855432 87.75976562 216.03564453 C87.95310234 217.23090193 87.95310234 217.23090193 88.15034485 218.45030594 C89 223.77138628 89 223.77138628 89 226 C76.79 226 64.58 226 52 226 C50.82490477 220.71207147 49.71876378 215.67222428 48.9296875 210.35546875 C48.66865234 208.59879883 48.66865234 208.59879883 48.40234375 206.80664062 C48.22832031 205.61232422 48.05429688 204.41800781 47.875 203.1875 C47.69324219 201.97384766 47.51148438 200.76019531 47.32421875 199.50976562 C46 190.514039 46 190.514039 46 186 C31.81 186 17.62 186 3 186 C2.67 189.96 2.34 193.92 2 198 C1.42357558 202.743089 0.71063767 207.46278939 0 212.1875 C-0.17789062 213.41275391 -0.35578125 214.63800781 -0.5390625 215.90039062 C-0.71179687 217.06119141 -0.88453125 218.22199219 -1.0625 219.41796875 C-1.21847656 220.46750732 -1.37445312 221.5170459 -1.53515625 222.59838867 C-2 225 -2 225 -3 226 C-5.44830426 226.08843793 -7.86820599 226.11528752 -10.31640625 226.09765625 C-11.04746078 226.0962413 -11.77851532 226.09482635 -12.53172302 226.09336853 C-14.87535632 226.08775408 -17.21889539 226.07519922 -19.5625 226.0625 C-21.14778508 226.05748686 -22.73307166 226.05292363 -24.31835938 226.04882812 C-28.2122761 226.03777997 -32.10612205 226.02050572 -36 226 C-35.38413714 214.95288199 -33.54371031 204.11560139 -31.78125 193.20849609 C-31.44737749 191.1213879 -31.1138919 189.03421778 -30.78076172 186.94699097 C-29.87998186 181.31071091 -28.97358077 175.6753484 -28.06594849 170.04016829 C-27.11598712 164.13723109 -26.17063372 158.23355575 -25.22460938 152.32998657 C-23.63726685 142.42895552 -22.04630052 132.52851199 -20.453125 122.62841797 C-18.60966632 111.17278659 -16.77179342 99.71626969 -14.93691254 88.25926149 C-13.17106842 77.23403753 -11.40148962 66.20941624 -9.63012695 55.18507767 C-8.87616246 50.49231386 -8.12348571 45.79934616 -7.37182617 41.10621262 C-6.4884083 35.5915839 -5.60172345 30.07749036 -4.71246338 24.56380081 C-4.38599076 22.5362193 -4.06065422 20.50845451 -3.73651123 18.48049927 C-3.29549294 15.72253037 -2.85043714 12.96524361 -2.40429688 10.20809937 C-2.27559959 9.39722945 -2.14690231 8.58635953 -2.01430511 7.75091779 C-1.11416152 2.22832303 -1.11416152 2.22832303 0 0 Z M24 45 C22.65092084 53.8002445 21.30300405 62.60066615 19.95639515 71.40128899 C19.3304219 75.49205305 18.7041132 79.58276504 18.0769043 83.67333984 C15.50929674 100.42084744 12.9540099 117.17018273 10.47229576 133.93066788 C10.25027315 135.42898957 10.02755774 136.92720878 9.8041172 138.42531967 C9.49701325 140.48651614 9.19276865 142.54811356 8.8894043 144.60986328 C8.71692673 145.77591095 8.54444916 146.94195862 8.366745 148.14334106 C7.93633131 151.01591231 7.93633131 151.01591231 8 154 C18.89 154 29.78 154 41 154 C37.13761321 126.62797271 33.17503245 99.27297552 29.0625 71.9375 C28.96087177 71.26197586 28.85924355 70.58645172 28.75453568 69.89045715 C27.50598944 61.59319022 26.25448569 53.29637104 25 45 C24.67 45 24.34 45 24 45 Z " fill="#0032FF" transform="translate(1658,76)"/>
<path d="M0 0 C10.89 0 21.78 0 33 0 C34.42054688 4.40730469 35.84109375 8.81460938 37.3046875 13.35546875 C41.00832647 24.84045886 44.72188111 36.3221932 48.4453125 47.80078125 C48.9091119 49.23072195 49.37290786 50.66066377 49.83670044 52.09060669 C50.54370552 54.27037875 51.25071157 56.45015049 51.95772743 58.62991905 C61.38080481 87.68279326 70.75970444 116.74896526 80.03448486 145.84959412 C81.00861913 148.90479909 81.98592494 151.95777481 83 155 C83.33 103.85 83.66 52.7 84 0 C91.59 0 99.18 0 107 0 C107 74.91 107 149.82 107 227 C98.09 227 89.18 227 80 227 C73.93793755 208.98856396 68.10938625 190.9338333 62.48538208 172.78100967 C60.54677095 166.52890155 58.59818052 160.27989393 56.6484375 154.03125 C56.4239518 153.31169443 56.19946609 152.59213886 55.9681778 151.85077858 C49.49955838 131.12798703 42.8725921 110.455512 36.24741173 89.78235817 C35.52639435 87.53244358 34.80559277 85.28245993 34.08480835 83.0324707 C33.20728378 80.29328611 32.32863712 77.55446567 31.4491272 74.81591797 C31.05277069 73.57962646 30.65641418 72.34333496 30.24804688 71.06958008 C29.90866089 70.01241287 29.5692749 68.95524567 29.21960449 67.86604309 C27.44907358 62.25360984 25.73071925 56.62483756 24 51 C23.67 109.08 23.34 167.16 23 227 C15.41 227 7.82 227 0 227 C0 152.09 0 77.18 0 0 Z " fill="#0032FF" transform="translate(565,76)"/>
<path d="M0 0 C12.45058081 11.61309779 16.37652692 26.36019074 17.36328125 42.875 C17.47027793 47.43896198 17.45883656 51.99764999 17.42578125 56.5625 C17.40515625 60.625625 17.38453125 64.68875 17.36328125 68.875 C5.81328125 68.875 -5.73671875 68.875 -17.63671875 68.875 C-17.94921875 53.875 -17.94921875 53.875 -18.0246582 49.19140625 C-18.32917512 37.20432989 -18.32917512 37.20432989 -24.13671875 26.9375 C-28.6357432 23.22580483 -33.07540458 23.54243152 -38.68359375 23.58984375 C-43.54083205 24.05886279 -46.0043514 26.30093148 -49.38671875 29.5625 C-53.33935799 36.8748826 -52.92390171 45.43559081 -52.89550781 53.50390625 C-52.89901245 54.73922089 -52.90251709 55.97453552 -52.90612793 57.24728394 C-52.9133853 60.61097192 -52.91173607 63.97441149 -52.90536976 67.33808517 C-52.9002743 70.87326112 -52.905011 74.40842711 -52.90814209 77.94360352 C-52.91177146 83.87811162 -52.90700974 89.8125698 -52.89746094 95.74707031 C-52.88657836 102.58912819 -52.89010467 109.43106684 -52.90111375 116.27312183 C-52.91021604 122.16809764 -52.91145756 128.06303774 -52.90623641 133.9580183 C-52.90313284 137.46984496 -52.90266268 140.98161574 -52.90930939 144.49343872 C-52.91620737 148.41103683 -52.90662218 152.32850346 -52.89550781 156.24609375 C-52.89955627 157.39649139 -52.90360474 158.54688904 -52.90777588 159.73214722 C-52.86586206 172.05099451 -52.86586206 172.05099451 -47.63671875 182.875 C-42.13501142 187.07367138 -35.23487903 186.63051454 -28.63671875 185.875 C-24.06778181 183.74808108 -21.7905444 181.40936979 -19.63671875 176.875 C-18.82265536 174.12217308 -18.49486442 171.61414747 -18.43139648 168.74902344 C-18.41145126 167.94849548 -18.39150604 167.14796753 -18.37095642 166.32318115 C-18.35424393 165.46887512 -18.33753143 164.61456909 -18.3203125 163.734375 C-18.28914085 162.41110199 -18.28914085 162.41110199 -18.25733948 161.06109619 C-18.19207008 158.24914169 -18.13306428 155.43709555 -18.07421875 152.625 C-18.03101202 150.71613644 -17.98739704 148.80728207 -17.94335938 146.8984375 C-17.83564525 142.22405082 -17.7364038 137.54959239 -17.63671875 132.875 C-6.08671875 132.875 5.46328125 132.875 17.36328125 132.875 C17.40453125 138.32 17.44578125 143.765 17.48828125 149.375 C17.50648926 151.05658203 17.52469727 152.73816406 17.54345703 154.47070312 C17.66445037 173.53895131 16.27862245 193.16187138 2.5546875 207.8046875 C-9.48244486 219.09101281 -24.86460666 221.70622237 -40.83984375 221.22265625 C-54.97514114 220.42946478 -67.89767005 215.81500934 -77.75390625 205.3203125 C-87.84955184 192.20854042 -90.10476031 176.88909015 -90.02490234 160.74804688 C-90.02898183 159.39925211 -90.03433133 158.05046069 -90.04083252 156.70167542 C-90.05434866 153.08382565 -90.04927356 149.46623647 -90.03969526 145.84838295 C-90.0320161 142.0339661 -90.03916689 138.21956924 -90.04385376 134.40515137 C-90.04928757 128.00362202 -90.04218253 121.60219704 -90.02783203 115.20068359 C-90.01151008 107.83541418 -90.01680028 100.47039406 -90.03331125 93.10513067 C-90.04699429 86.74287733 -90.0488127 80.38069833 -90.04099524 74.018435 C-90.03635593 70.23542868 -90.03558918 66.4525389 -90.04560471 62.66954041 C-90.05437229 59.11031053 -90.04807738 55.5513971 -90.03092194 51.99220085 C-90.02516552 50.08896678 -90.03388825 48.18570544 -90.04330444 46.28248596 C-89.92842038 30.41255224 -86.7484399 14.71427432 -75.63671875 2.875 C-56.6654222 -15.25718151 -20.48598337 -16.51018512 0 0 Z " fill="#0032FF" transform="translate(1270.63671875,84.125)"/>
<path d="M0 0 C0.69738281 0.57492188 1.39476562 1.14984375 2.11328125 1.7421875 C11.12997438 9.92683173 16.29527873 22.03948573 17.15170288 34.14416504 C17.36421172 39.84642234 17.27478974 45.5459722 17.1875 51.25 C17.17241737 52.97785284 17.15873533 54.70571851 17.14648438 56.43359375 C17.11635935 60.62298004 17.05759432 64.81054635 17 69 C5.78 69 -5.44 69 -17 69 C-17.3125 54 -17.3125 54 -17.38793945 49.31640625 C-17.69245637 37.32932989 -17.69245637 37.32932989 -23.5 27.0625 C-27.23587896 23.98039986 -30.16938943 23.82040814 -34.875 23.75 C-35.90367188 23.72421875 -36.93234375 23.6984375 -37.9921875 23.671875 C-41.38891293 24.04242686 -43.18332134 25.13529984 -46 27 C-46.66 27 -47.32 27 -48 27 C-51.77874355 35.63712811 -52.2908893 43.4040986 -52.25878906 52.71484375 C-52.2622937 53.97112579 -52.26579834 55.22740784 -52.26940918 56.52175903 C-52.27667496 59.94741879 -52.27501186 63.37283516 -52.26865101 66.79848099 C-52.26356238 70.39552368 -52.26829038 73.99255648 -52.27142334 77.58959961 C-52.27505467 83.6284368 -52.2702858 89.66722495 -52.26074219 95.70605469 C-52.24985923 102.67251102 -52.2533854 109.63885026 -52.264395 116.60530376 C-52.27349166 122.60300284 -52.27474154 128.6006668 -52.26951766 134.59837055 C-52.26641101 138.1733371 -52.26595253 141.74824873 -52.27259064 145.32321167 C-52.27947828 149.31057228 -52.26991254 153.29780334 -52.25878906 157.28515625 C-52.26283752 158.45942169 -52.26688599 159.63368713 -52.27105713 160.84353638 C-52.22635148 169.50996534 -51.78638432 177.05633882 -46 184 C-40.29586742 186.91189985 -34.24592226 186.62852048 -28 186 C-22.92639694 183.72562622 -21.02520202 181.11629984 -19 176 C-18.20917589 173.27365478 -17.85909992 170.80039653 -17.79467773 167.96582031 C-17.77473251 167.18531311 -17.75478729 166.40480591 -17.73423767 165.60064697 C-17.71752518 164.76821472 -17.70081268 163.93578247 -17.68359375 163.078125 C-17.66281265 162.21813904 -17.64203156 161.35815308 -17.62062073 160.47210693 C-17.55536261 157.73148402 -17.49635083 154.99076725 -17.4375 152.25 C-17.39429219 150.3893133 -17.35067718 148.52863602 -17.30664062 146.66796875 C-17.19894106 142.11207388 -17.09969132 137.5561053 -17 133 C-5.78 133 5.44 133 17 133 C17.09260099 139.13481572 17.17200224 145.26713778 17.21972656 151.40209961 C17.23965241 153.48226202 17.2668032 155.56236984 17.30175781 157.64233398 C17.62297961 177.26993038 16.07243747 194.02404274 2.08984375 208.99609375 C-9.22547338 219.84610812 -24.98532015 221.50840188 -39.95703125 221.27734375 C-52.65440735 220.79075222 -64.0507689 217.00160868 -73.75 208.625 C-74.4925 207.75875 -75.235 206.8925 -76 206 C-76.47953125 205.44957031 -76.9590625 204.89914062 -77.453125 204.33203125 C-87.73931654 191.73404414 -89.3019582 176.84774645 -89.29052734 161.15356445 C-89.29652708 159.79860571 -89.30333589 158.44365035 -89.31088257 157.08869934 C-89.32840449 153.43961382 -89.3332321 149.79062234 -89.33451414 146.1414988 C-89.33594437 143.85228475 -89.34023033 141.56309396 -89.34550858 139.27388573 C-89.36396437 131.26078167 -89.37218494 123.24774375 -89.37060547 115.23461914 C-89.36940582 107.80863555 -89.39048487 100.3829434 -89.4220928 92.95703346 C-89.4483936 86.54556063 -89.458967 80.13418219 -89.45769465 73.72265595 C-89.45718898 69.90929673 -89.46264985 66.09619687 -89.48405075 62.28289223 C-89.71378237 18.30842693 -89.71378237 18.30842693 -73.7265625 1.33203125 C-54.59454462 -15.03160008 -19.39633924 -16.13235179 0 0 Z " fill="#0032FF" transform="translate(1593,84)"/>
<path d="M0 0 C32.34 0 64.68 0 98 0 C98 10.89 98 21.78 98 33 C77.87 33 57.74 33 37 33 C37 53.46 37 73.92 37 95 C52.84 95 68.68 95 85 95 C85 105.89 85 116.78 85 128 C69.16 128 53.32 128 37 128 C37 149.45 37 170.9 37 193 C57.13 193 77.26 193 98 193 C98 203.89 98 214.78 98 226 C65.66 226 33.32 226 0 226 C0 151.42 0 76.84 0 0 Z " fill="#0032FF" transform="translate(1065,76)"/>
<path d="M0 0 C77.36710385 0 77.36710385 0 91.3125 12.5 C103.01544877 25.32448136 105.47214925 42.23064326 105.38818359 58.94335938 C105.39344055 60.25915482 105.39869751 61.57495026 105.40411377 62.93061829 C105.41762662 66.49475208 105.41255623 70.05862128 105.40297651 73.62275887 C105.39529559 77.38112136 105.40244862 81.13946361 105.40713501 84.89782715 C105.41256832 91.2052002 105.40546511 97.51246731 105.39111328 103.81982422 C105.37479142 111.07603176 105.38008166 118.33198627 105.3965925 125.58818769 C105.41027699 131.85702387 105.41209326 138.1257846 105.40427649 144.39463091 C105.39963796 148.1217465 105.39886821 151.8487438 105.40888596 155.57585144 C105.41929051 159.73626294 105.40480548 163.89624925 105.38818359 168.05664062 C105.39425629 169.26536331 105.40032898 170.474086 105.40658569 171.71943665 C105.29649692 186.70795825 102.24415472 202.64473311 91.6875 214 C67.19411356 235.65040408 28.76795714 227 0 227 C0 152.09 0 77.18 0 0 Z M26 24 C26 83.07 26 142.14 26 203 C50.81382929 205.22424601 50.81382929 205.22424601 72.4375 195.9375 C78.73713381 187.37089361 79.5868016 177.83962246 79.51757812 167.53320312 C79.5245874 166.23253403 79.53159668 164.93186493 79.53881836 163.59178162 C79.55689759 160.05652823 79.55004894 156.52174701 79.53730202 152.98648643 C79.52709359 149.26673594 79.53658926 145.54702279 79.54284668 141.82727051 C79.55010047 135.58350451 79.54059535 129.33992848 79.52148438 123.09619141 C79.49971985 115.9029704 79.50677285 108.71020308 79.52879 101.51699305 C79.54700907 95.31363909 79.54947072 89.1104208 79.53903532 82.9070487 C79.53283593 79.2140444 79.53186563 75.52125253 79.54518127 71.82826233 C79.55900453 67.70750565 79.5397846 63.58751697 79.51757812 59.46679688 C79.52567505 58.2612767 79.53377197 57.05575653 79.54211426 55.81370544 C79.45262079 46.80718707 77.87872808 38.46179663 72.4375 31.0625 C59.51699876 19.55150798 42.11065981 24 26 24 Z " fill="#0032FF" transform="translate(697,76)"/>
<path d="M0 0 C10.68242176 8.57054184 15.92321942 21.22323216 17.84765625 34.5078125 C17.93997028 36.52277 17.98645458 38.54018205 17.99482727 40.55723572 C18.00198257 41.74703033 18.00913788 42.93682495 18.01651001 44.16267395 C18.01919891 45.45469223 18.02188782 46.74671051 18.0246582 48.07788086 C18.03093043 49.46327888 18.0375779 50.84867525 18.04457092 52.23406982 C18.06553302 56.77192023 18.07596972 61.30977066 18.0859375 65.84765625 C18.08998875 67.41677937 18.09410578 68.98590232 18.09828758 70.5550251 C18.11732634 77.93349346 18.13155704 85.31195194 18.13989955 92.69044012 C18.14965077 101.17221413 18.17592022 109.65372571 18.21640044 118.13540739 C18.24670253 124.71320517 18.2613819 131.29092835 18.26468056 137.8687945 C18.26701607 141.78672722 18.2757777 145.70437921 18.30114174 149.62223625 C18.32467424 153.31680941 18.32855657 157.01092205 18.31838036 160.70555115 C18.31766037 162.6814727 18.33657533 164.6573722 18.35644531 166.63319397 C18.26776664 182.15202539 14.11873777 198.23673098 2.84765625 209.5078125 C-11.10831877 220.35032147 -25.90412324 222.6822419 -43.15234375 221.5078125 C-56.42956352 219.8233891 -67.8659124 214.1863646 -76.15234375 203.5078125 C-84.40811868 190.3531828 -86.6166093 176.75868732 -86.54052734 161.38085938 C-86.54460683 160.03206461 -86.54995633 158.68327319 -86.55645752 157.33448792 C-86.56997366 153.71663815 -86.56489856 150.09904897 -86.55532026 146.48119545 C-86.5476411 142.6667786 -86.55479189 138.85238174 -86.55947876 135.03796387 C-86.56491257 128.63643452 -86.55780753 122.23500954 -86.54345703 115.83349609 C-86.52713508 108.46822668 -86.53242528 101.10320656 -86.54893625 93.73794317 C-86.56261929 87.37568983 -86.5644377 81.01351083 -86.55662024 74.6512475 C-86.55198093 70.86824118 -86.55121418 67.0853514 -86.56122971 63.30235291 C-86.56999729 59.74312303 -86.56370238 56.1842096 -86.54654694 52.62501335 C-86.54079052 50.72177928 -86.54951325 48.81851794 -86.55892944 46.91529846 C-86.47871945 35.83519435 -84.98404202 24.90289518 -79.77734375 15.0078125 C-79.21273438 13.904375 -78.648125 12.8009375 -78.06640625 11.6640625 C-71.59309324 0.98970145 -62.10299559 -5.2039904 -50.15234375 -8.4921875 C-33.16337577 -12.14311185 -14.40282549 -9.98526196 0 0 Z M-54.58984375 23.2578125 C-60.45899607 31.31694703 -60.59095124 40.51884329 -60.55639648 50.11474609 C-60.56210954 51.46767233 -60.5690774 52.82059374 -60.57719421 54.17350769 C-60.59503905 57.82449367 -60.59397358 61.47523818 -60.58825183 65.12625456 C-60.5851469 68.18512572 -60.59126696 71.24395137 -60.59729058 74.30281603 C-60.61130613 81.52515856 -60.60979976 88.74738273 -60.59838867 95.96972656 C-60.58691427 103.39578257 -60.6009783 110.82147713 -60.62778515 118.24748552 C-60.65000992 124.64611314 -60.65656422 131.04462787 -60.65070873 137.44329131 C-60.64735361 141.25482764 -60.64965695 145.06613245 -60.66695976 148.87763596 C-60.68253525 152.46476373 -60.67835767 156.0513602 -60.65965462 159.63846779 C-60.65426826 161.5650022 -60.66840241 163.49156109 -60.68334961 165.41804504 C-60.60177273 175.13747235 -58.95591878 184.79959447 -51.96484375 192.0703125 C-45.8075793 196.95366017 -38.81969619 198.1937867 -31.11328125 197.88671875 C-24.61958569 197.05573132 -19.19865525 195.08674323 -14.71484375 190.1953125 C-9.80443859 183.71746162 -8.0360529 176.83233403 -8.01190186 168.77278137 C-8.00619171 167.62762054 -8.00048157 166.48245972 -7.99459839 165.30259705 C-7.99348053 164.0552327 -7.99236267 162.80786835 -7.99121094 161.52270508 C-7.98657871 160.18845483 -7.98155351 158.8542059 -7.97616577 157.5199585 C-7.96307698 153.90193041 -7.95660348 150.28392086 -7.95215511 146.66587281 C-7.94921814 144.40187156 -7.94511212 142.1378753 -7.94065094 139.87387657 C-7.92698405 132.77999992 -7.91731396 125.68613477 -7.91344905 118.59224588 C-7.90897291 110.4228799 -7.89144235 102.25368163 -7.86244845 94.08436662 C-7.84077768 87.75719452 -7.83074187 81.43006942 -7.82940793 75.10286063 C-7.82836358 71.32988411 -7.82253525 67.5570654 -7.80458832 63.78412819 C-7.78801437 60.23080892 -7.78599683 56.6777645 -7.79472733 53.12442017 C-7.79585521 51.2131499 -7.78220929 49.30188837 -7.76797485 47.39067078 C-7.81428391 37.75110121 -8.97880484 28.90403422 -15.3125 21.26953125 C-20.81915208 15.99670728 -26.61241574 14.19424431 -34.15234375 13.8828125 C-42.62394814 14.23272659 -49.1408826 16.5964908 -54.58984375 23.2578125 Z " fill="#0032FF" transform="translate(524.15234375,83.4921875)"/>
<path d="M0 0 C11.18951149 8.62835664 16.31861621 23.19908471 18.0703125 36.73046875 C18.34024102 41.32800108 18.35418352 45.91229081 18.3449707 50.5168457 C18.34932909 51.86519652 18.35451595 53.21354488 18.36045837 54.56188965 C18.37373975 58.19225618 18.3744392 61.82251793 18.37189507 65.45290399 C18.37081776 68.49915708 18.37572811 71.54538962 18.3805005 74.59163827 C18.39155852 81.78726373 18.3920543 88.98283697 18.38598633 96.1784668 C18.3799518 103.56581637 18.3922528 110.95297522 18.4135564 118.34029227 C18.43125461 124.71521464 18.43716081 131.09007676 18.43391865 137.46502274 C18.43211841 141.25814555 18.43461431 145.05113233 18.44863319 148.84423256 C18.46134148 152.4157169 18.45914685 155.98690718 18.44622231 159.55838776 C18.44278371 161.46881907 18.45393837 163.37925994 18.46578979 165.28965759 C18.37101812 181.13714142 14.94274444 196.65379772 4.0078125 208.66796875 C-8.74541312 220.33303519 -24.13895902 222.58722134 -40.75244141 221.8828125 C-52.69619838 221.04709773 -64.67434587 216.6364777 -72.9296875 207.73046875 C-83.41622548 194.76435528 -86.23564098 180.01258941 -86.2043457 163.78808594 C-86.20870089 162.39899931 -86.2138867 161.00991508 -86.21983337 159.62083435 C-86.23315071 155.87058664 -86.23381 152.12044017 -86.23127007 148.37017345 C-86.23019501 145.22699887 -86.23509757 142.08384432 -86.2398755 138.94067407 C-86.25094644 131.51691179 -86.25142228 124.09320012 -86.24536133 116.66943359 C-86.23932864 109.04126039 -86.25162012 101.41327196 -86.2729314 93.78513026 C-86.29061774 87.20984124 -86.29653757 80.63461065 -86.29329365 74.05929875 C-86.29149118 70.1437777 -86.29401199 66.22838836 -86.30800819 62.3128891 C-86.32069641 58.62570796 -86.31854015 54.93881197 -86.30559731 51.2516346 C-86.30215015 49.27538923 -86.31332908 47.29913469 -86.32516479 45.32292175 C-86.23237557 29.34165956 -82.36898015 14.51735359 -71.12890625 2.69921875 C-52.241466 -14.20889828 -20.44543859 -13.45094644 0 0 Z M-53.2421875 21.85546875 C-61.53381174 32.68064484 -61.08056954 45.6523311 -61.07495117 58.66503906 C-61.07830978 59.80322586 -61.0816684 60.94141266 -61.08512878 62.11408997 C-61.09456264 65.84560259 -61.09657805 69.57706997 -61.09765625 73.30859375 C-61.10087401 75.92494728 -61.10423847 78.54130064 -61.10774231 81.15765381 C-61.11411336 86.63130992 -61.11562727 92.10495396 -61.11499023 97.57861328 C-61.11439038 103.86732046 -61.12493256 110.15594161 -61.1407339 116.44462705 C-61.15548887 122.53841762 -61.1589755 128.63216755 -61.15838051 134.72597504 C-61.15955312 137.29812725 -61.16393409 139.87028024 -61.17171288 142.44242096 C-62.65667806 168.07078676 -62.65667806 168.07078676 -53.13671875 190.69140625 C-46.39269704 197.08322567 -39.96916229 198.16235901 -30.86328125 197.98046875 C-23.88645715 197.38590584 -18.84974863 194.76234945 -13.9296875 189.73046875 C-8.0219333 180.67450343 -7.63131332 171.13885182 -7.63916016 160.63598633 C-7.63244293 159.3389679 -7.62572571 158.04194946 -7.61880493 156.70562744 C-7.60122714 153.16606586 -7.59645296 149.62660115 -7.59517336 146.08700013 C-7.59374615 143.86901691 -7.58946575 141.65105786 -7.58417892 139.43308067 C-7.56570351 131.67631865 -7.5575049 123.9196251 -7.55908203 116.1628418 C-7.5602817 108.96350413 -7.53920752 101.76446708 -7.5075947 94.5652054 C-7.48132762 88.35935793 -7.47071913 82.15360799 -7.47199285 75.94770545 C-7.47249957 72.25232487 -7.46697915 68.55721155 -7.44563675 64.86188698 C-7.42243192 60.73169492 -7.43183855 56.60216378 -7.44384766 52.47192383 C-7.42698914 50.6673597 -7.42698914 50.6673597 -7.40979004 48.82633972 C-7.4761717 39.78799431 -8.58370009 29.60658075 -14.2421875 22.16796875 C-21.43542678 15.64386801 -28.09381639 14.35044217 -37.6015625 14.45703125 C-44.01052461 14.98358917 -48.80739349 17.1890064 -53.2421875 21.85546875 Z " fill="#0032FF" transform="translate(908.9296875,83.26953125)"/>
<path d="M0 0 C10.91655204 8.56529468 15.2523037 21.12665078 17.6015625 34.3984375 C18.04884066 38.44148129 18.11042004 42.37617048 18.0625 46.4375 C18.041875 48.933125 18.02125 51.42875 18 54 C9.75 54 1.5 54 -7 54 C-7.103125 51.586875 -7.20625 49.17375 -7.3125 46.6875 C-7.8935969 36.8068454 -8.81124828 27.95449239 -16.06640625 20.59375 C-21.90805984 15.77881128 -28.33893811 15.38762705 -35.7421875 15.59375 C-41.67716889 16.3338436 -46.63617773 18.3351249 -50.65625 22.8671875 C-57.08717637 32.47618794 -56.97539266 43.86833123 -56 55 C-55.17196703 59.01313707 -53.87507455 62.3685265 -52 66 C-51.63390625 66.78890625 -51.2678125 67.5778125 -50.890625 68.390625 C-44.76052113 80.12107067 -33.56163312 89.06428756 -23.19262695 96.95239258 C-17.26541833 101.48036402 -11.83079766 106.46734614 -6.44580078 111.62158203 C-5.12093528 112.88470101 -3.77810371 114.12890571 -2.43359375 115.37109375 C9.73739291 126.92426382 17.65597284 142.68711369 18.3359375 159.56640625 C18.62073543 178.34750722 16.87931785 195.04052609 3.9375 209.8125 C-7.63425297 220.44600273 -22.47192885 222.59875328 -37.5234375 222.24609375 C-50.68847882 221.68522616 -63.04980094 217.26202158 -72.15234375 207.44921875 C-84.94478643 190.49179473 -84.40839567 172.25340018 -84 152 C-76.08 152 -68.16 152 -60 152 C-59.87625 154.908125 -59.7525 157.81625 -59.625 160.8125 C-58.82011199 177.5046733 -58.82011199 177.5046733 -51 192 C-44.27557918 197.48991592 -36.31308447 197.72598893 -28 197 C-21.19275885 195.35687283 -16.80623028 192.88235589 -13 187 C-7.85538257 176.5270288 -7.14004959 163.86165434 -10.5625 152.6875 C-16.45600116 137.608266 -27.83586819 126.74029748 -40.41796875 117.00390625 C-60.05865787 101.76082982 -78.94230887 84.86683991 -83 59 C-84.52601761 40.26960925 -83.2099294 20.75232169 -71.375 5.3125 C-65.19800167 -1.40439021 -56.79718263 -5.84220049 -48 -8 C-47.28714844 -8.18304688 -46.57429688 -8.36609375 -45.83984375 -8.5546875 C-29.80286761 -11.06942654 -13.61965264 -9.13723532 0 0 Z " fill="#0032FF" transform="translate(400,83)"/>
<path d="M0 0 C36.63 0 73.26 0 111 0 C111 10.89 111 21.78 111 33 C98.79 33 86.58 33 74 33 C74 96.69 74 160.38 74 226 C61.79 226 49.58 226 37 226 C37 162.31 37 98.62 37 33 C24.79 33 12.58 33 0 33 C0 22.11 0 11.22 0 0 Z " fill="#0032FF" transform="translate(940,76)"/>
<path d="M0 0 C11.88 0 23.76 0 36 0 C36 74.58 36 149.16 36 226 C24.12 226 12.24 226 0 226 C0 151.42 0 76.84 0 0 Z " fill="#0032FF" transform="translate(1446,76)"/>
<path d="M0 0 C3.96 0 7.92 0 12 0 C12.23162207 18.26300625 12.41001019 36.52550756 12.51812172 54.78966618 C12.56965748 63.27036135 12.63989806 71.75012648 12.75439453 80.23022461 C12.85415891 87.62273405 12.91860283 95.01456994 12.94088495 102.40773386 C12.95390848 106.32175909 12.98444174 110.23385776 13.05730057 114.14726448 C13.12538261 117.83410482 13.14607986 121.51823345 13.13107681 125.2056427 C13.13512354 127.19778627 13.1888423 129.18963666 13.24420166 131.18101501 C13.14550917 139.76769572 13.14550917 139.76769572 9.76774216 143.4013958 C3.39179148 148 3.39179148 148 0 148 C0 99.16 0 50.32 0 0 Z " fill="#0032FF" transform="translate(93,172)"/>
<path d="M0 0 C4.29 0 8.58 0 13 0 C13.27859287 15.30786726 13.49233962 30.61543854 13.62174606 45.9252739 C13.68344898 53.03521128 13.7674571 60.14353831 13.90527344 67.25244141 C14.02543469 73.45364464 14.10242522 79.65368125 14.12906194 85.8560164 C14.14462015 89.13664237 14.18720113 92.41318236 14.26876068 95.6929245 C14.80928253 118.33884155 14.80928253 118.33884155 8.67351151 125.13209915 C2.37094288 131 2.37094288 131 0 131 C0 87.77 0 44.54 0 0 Z " fill="#0032FF" transform="translate(116,172)"/>
<path d="M0 0 C0.33 0 0.66 0 1 0 C1 40.92 1 81.84 1 124 C-10 130 -10 130 -12 130 C-12.18761416 116.01295295 -12.32777678 102.02610346 -12.41449738 88.03805256 C-12.45613307 81.54176816 -12.51255072 75.0463329 -12.60351562 68.55053711 C-12.69085327 62.27402161 -12.73836139 55.99831948 -12.75901794 49.7212429 C-12.77372607 47.33431391 -12.8024476 44.94742619 -12.84584045 42.56084633 C-13.08910016 28.61902822 -12.95405976 19.06731734 -4 8 C-2.5374432 5.37707969 -1.27916587 2.71822748 0 0 Z " fill="#0032FF" transform="translate(81,203)"/>
<path d="M0 0 C0 33 0 66 0 100 C-4.97677524 102.13290367 -7.92997663 103.38170447 -13 104 C-13.25516999 91.62180971 -13.45046975 79.24424749 -13.56993389 66.86396027 C-13.62728042 61.11474039 -13.70502017 55.367323 -13.82983398 49.61914062 C-13.94959519 44.06874473 -14.01517383 38.52007903 -14.04364967 32.9684906 C-14.06393376 30.85359963 -14.10354836 28.73880068 -14.16303062 26.62464905 C-14.61065262 10.05181333 -14.61065262 10.05181333 -10.54824829 4.87670898 C-4.03216019 0 -4.03216019 0 0 0 Z " fill="#0032FF" transform="translate(59,237)"/>
<path d="M0 0 C4.29 0 8.58 0 13 0 C13.20951405 11.23162139 13.36893897 22.46276995 13.46630955 33.69595528 C13.51306892 38.91340809 13.57637938 44.12951376 13.67895508 49.34619141 C13.77751506 54.3908274 13.830717 59.43417672 13.85389519 64.479702 C13.87038898 66.39418647 13.90259597 68.30860896 13.95157051 70.22253799 C14.27792453 83.51821688 12.42957618 91.6045337 4 102 C3.34 102.99 2.68 103.98 2 105 C1.34 105 0.68 105 0 105 C0 70.35 0 35.7 0 0 Z " fill="#0032FF" transform="translate(139,172)"/>
<path d="M0 0 C0 30.36 0 60.72 0 92 C-5.94 92.99 -5.94 92.99 -12 94 C-12 64.3 -12 34.6 -12 4 C-2 0 -2 0 0 0 Z " fill="#0032FF" transform="translate(35,252)"/>
<path d="M0 0 C0 29.37 0 58.74 0 89 C-3.96 89 -7.92 89 -12 89 C-12 59.96 -12 30.92 -12 1 C-2 0 -2 0 0 0 Z " fill="#0032FF" transform="translate(12,258)"/>
<path d="M0 0 C0 7.26 0 14.52 0 22 C-16.5 22 -33 22 -50 22 C-50 18.04 -50 14.08 -50 10 C-43.36223901 8.57195278 -36.7236408 7.14788921 -30.08422852 5.72753906 C-27.82487807 5.24361293 -25.56576187 4.75859178 -23.30688477 4.27246094 C-20.06327037 3.57460318 -16.81883875 2.88066517 -13.57421875 2.1875 C-12.56163498 1.96876221 -11.54905121 1.75002441 -10.50578308 1.5246582 C-9.56503433 1.32445068 -8.62428558 1.12424316 -7.6550293 0.91796875 C-6.82674118 0.74031982 -5.99845306 0.5626709 -5.14506531 0.37963867 C-3 0 -3 0 0 0 Z " fill="#0032FF" transform="translate(1139,42)"/>
<path d="M0 0 C3.96 0 7.92 0 12 0 C10.95615866 51.04384134 10.95615866 51.04384134 0 62 C0 41.54 0 21.08 0 0 Z " fill="#0032FF" transform="translate(163,172)"/>
</svg>
